<svg xmlns="http://www.w3.org/2000/svg" xmlns:xlink="http://www.w3.org/1999/xlink" width="88" height="54">
  <defs><path id="A" d="M0 0h88v53H0z"/></defs>
  <g fill="none" fill-rule="evenodd" transform="translate(0 10)">
    <mask id="B" fill="#fff"><use xlink:href="#A"/></mask>
    <g mask="url(#B)">
      <path fill="#e34132" d="M50.85 30.043c-1.87 3.908-6.943 3.71-8.483-.332-.08-.212-.152-.505-.217-.722l-.87-.13-.863-.124-.852-.12-.84-.112c-1.56 4.6-5.592 2.63-6.992-.3-.488-1.022-1.13-3.036.034-5.034a95.015 95.015 0 0 1-1.414-3.442c-3.174.92-4.01-3.9-1.99-7.265 1.94-3.16 3.918-2.263 4.59-1.613 1.528 1.48 1.22 4.98-.647 7.423l1.43 3.538c.593-.1 3.627-.395 5 3.853a175.83 175.83 0 0 1 2.706.357l.922.13c2.204-4.425 7.436-3.153 8.7.144.458 1.206.4 2.538-.193 3.756"/>
      <path fill="#2196f3" d="M50.878 19.927c-.204-.455-.342-1.11-.435-1.6l-1.03-.18-1.032-.172a120.154 120.154 0 0 0-2.062-.323c-2.99 4.962-8.436 3.256-9.32-.58-1.06-4.595 4.254-8.44 8-5.795 1.446 1.02 1.742 2.538 1.885 3.27l1.032.153 1.034.163 1.036.17 1.033.178c.436-.777.8-1.2 1.496-1.74l-1.452-3.7c-.45.01-4.423-.01-5.036-3.697a89.427 89.427 0 0 0-3.703-.319c-3.128 3.685-7.497 3.35-7.857.962-.46-3.05 5.06-6.715 7.768-5.158.948.545.978 1.484.996 1.988a63.322 63.322 0 0 1 1.741.12 71.844 71.844 0 0 1 1.779.164c.702-.774 1.427-1.285 2.27-1.567 1.906-.612 5.388-.244 6.34 2.822.356 1.34-.166 2.806-1.52 3.817a211.246 211.246 0 0 1 1.513 3.63c3.7.004 6.205 3.85 4.768 7.345-1.706 4.15-7.414 4.19-9.254.06z"/>
    </g>
    <!-- <g fill="#fff" mask="url(#B)">
      <path d="M49.158 38.867c1.42 0 2.127.33 2.8.925.653.58.72 1.276.72 2.608v2.33c0 1.332-.067 2.143-.72 2.722-.672.595-1.517.84-2.937.84l-4.4-.004v3.506l-1.86.027V38.867h6.398zm-41.63 0c2.357 0 3.354.894 3.626 2.944l-1.86.295c-.054-.495-.225-.923-.443-1.118-.308-.282-.652-.353-1.812-.353H5.354c-1.178 0-1.523.07-1.813.353-.3.3-.442.733-.442 1.83v1.644c0 1.096.153 1.406.442 1.706.3.283.635.354 1.813.354H7.04c1.16 0 1.504-.07 1.812-.354.218-.194.4-.62.444-1.117l1.86.294c-.272 2.05-1.27 2.945-3.626 2.945H4.865c-1.342 0-2.14-.247-2.774-.848-.616-.584-.852-1.344-.852-2.688v-2.35c0-1.343.235-2.103.852-2.686.635-.6 1.432-.85 2.774-.85H7.53zm11.775 0c1.342 0 2.14.248 2.773.85.617.583.853 1.342.853 2.686v2.35c0 1.343-.236 2.104-.853 2.688-.633.6-1.43.848-2.773.848H16.64c-1.342 0-2.14-.247-2.774-.848-.616-.584-.852-1.344-.852-2.688v-2.35c0-1.343.236-2.103.852-2.686.634-.6 1.432-.85 2.774-.85h2.664zm10.442 0c1.554 0 2.37.367 3.08 1.146.693-.78 1.564-1.146 3.118-1.146h1.24c1.384 0 2.155.332 2.8.933.637.583.907 1.256.907 2.6v5.89h-1.86v-5.595c0-1.096-.246-1.32-.545-1.62-.28-.265-.557-.44-1.624-.44h-.93c-1.066 0-1.47.175-1.75.44-.3.3-.418.525-.418 1.62v5.595h-1.86v-5.533c0-1.097-.174-1.383-.473-1.683-.3-.283-.79-.44-2.005-.44h-2.8v7.656H24.8v-9.422h4.957zm31.1 0c1.33 0 2.14.248 2.75.83s.845 1.308.845 2.705v1.765l-8.057.01v.283c0 1.096.22 1.46.508 1.76.252.265.583.344 1.588.353l1.88.001c1.15 0 1.492-.07 1.798-.354.215-.194.37-.4.423-.876l1.86.295c-.325 2.015-1.294 2.65-3.595 2.65h-2.643c-1.33 0-2.14-.247-2.75-.848s-.928-1.394-.928-2.72v-2.35c0-1.343.317-2.07.928-2.654.6-.6 1.42-.85 2.75-.85h2.643zm25.905 0v9.418l-6.288.004c-1.377 0-2.194-.245-2.847-.84-.63-.58-.78-1.365-.78-2.696v-2.33c0-1.332.15-2.053.78-2.63.652-.596 1.56-.925 2.937-.925h6.198zM69.98 36.5v2.355h5.005l-.334 1.766h-4.67l-.012 4.153c0 1.472.44 1.787 2.404 1.752l2.614-.02v1.767l-3.154.005c-1.484 0-2.364-.246-3.066-.84-.68-.58-.788-1.366-.788-2.697v-4.12H66.3v-1.766h1.668V36.5h2.002zm-50.954 4.125H17.13c-1.18 0-1.523.07-1.813.353-.3.3-.444.61-.444 1.705v1.644c0 1.096.153 1.53.444 1.83.3.283.634.354 1.813.354h1.685c1.178 0 1.523-.07 1.812-.353.3-.302.443-.612.443-1.708v-1.644c0-1.096-.152-1.528-.443-1.828-.27-.266-.6-.344-1.6-.353zm29.416-.003H44.62v5.9h3.806c1.263 0 1.633-.07 1.943-.35.3-.298.448-.63.448-1.713v-1.625c0-1.084-.137-1.486-.448-1.783-.3-.28-.663-.42-1.926-.42zm36.458 0h-4.028c-1.2 0-1.465.143-1.76.425-.295.302-.41.54-.41 1.636v1.767c0 1.096.114 1.478.41 1.78.278.265.53.28 1.558.28h4.23v-5.89zm-24.44 0h-1.818c-1.94 0-2.25.295-2.25 1.767H62.9c0-1.472-.3-1.767-2.44-1.767z"/>
    </g> -->
  </g>
</svg>